<svg width="19" height="19" viewBox="0 0 19 19" fill="none" xmlns="http://www.w3.org/2000/svg">
<path d="M0 2.69034C0 1.20451 1.20451 0 2.69034 0L15.7367 0C17.2225 0 18.427 1.20451 18.427 2.69034V15.7367C18.427 17.2225 17.2225 18.427 15.7367 18.427H2.69034C1.20451 18.427 0 17.2225 0 15.7367L0 2.69034Z" fill="white"/>
<circle cx="9.21922" cy="9.21836" r="4.62937" fill="#121116"/>
<path d="M9.23226 12.9218C8.25354 12.9218 7.31491 12.533 6.62285 11.8409C5.93079 11.1489 5.54199 10.2103 5.54199 9.23153C5.54199 8.25281 5.93079 7.31417 6.62285 6.62211C7.31491 5.93005 8.25354 5.54126 9.23226 5.54126L9.23226 9.23153L9.23226 12.9218Z" fill="white"/>
<rect x="8.875" y="1.57336" width="0.714246" height="2.16919" rx="0.357123" fill="#121116"/>
<rect x="8.875" y="14.6943" width="0.714246" height="2.16919" rx="0.357123" fill="#121116"/>
<rect x="14.3721" y="3.5603" width="0.714246" height="2.16919" rx="0.357123" transform="rotate(45 14.3721 3.5603)" fill="#121116"/>
<rect x="5.09473" y="12.8382" width="0.714246" height="2.16919" rx="0.357123" transform="rotate(45 5.09473 12.8382)" fill="#121116"/>
<rect x="3.56152" y="4.02502" width="0.714246" height="2.16919" rx="0.357123" transform="rotate(-45 3.56152 4.02502)" fill="#121116"/>
<rect x="12.8398" y="13.303" width="0.714246" height="2.16919" rx="0.357123" transform="rotate(-45 12.8398 13.303)" fill="#121116"/>
<rect x="1.57227" y="9.54712" width="0.714246" height="2.16919" rx="0.357123" transform="rotate(-90 1.57227 9.54712)" fill="#121116"/>
<rect x="14.6943" y="9.54742" width="0.714246" height="2.16919" rx="0.357123" transform="rotate(-90 14.6943 9.54742)" fill="#121116"/>
</svg>
